<svg width="32px" height="32px" viewBox="-16 -16 32 32" xmlns="http://www.w3.org/2000/svg">
    <path stroke="#0014aa" stroke-width="0.65" d="M0.5999999999999908,-12.178999999999998C0.5999999999999908,-12.178999999999998,0.7259999999999902,-12.136999999999999,0.7259999999999902,-12.136999999999999C0.7259999999999902,-12.136999999999999,1.0619999999999887,-11.633,1.0619999999999887,-11.633C1.0619999999999887,-11.633,1.439999999999987,-10.331,1.439999999999987,-10.331C1.439999999999987,-10.331,1.6919999999999877,-9.029,1.6919999999999877,-9.029C1.6919999999999877,-9.029,1.9019999999999886,-6.844999999999999,1.9019999999999886,-6.844999999999999C1.9019999999999886,-6.844999999999999,1.9019999999999886,-3.946999999999999,1.9019999999999886,-3.946999999999999C1.9019999999999886,-3.946999999999999,3.413999999999989,-2.8130000000000006,3.413999999999989,-2.8130000000000006C3.413999999999989,-2.8130000000000006,3.3299999999999894,-3.4429999999999996,3.3299999999999894,-3.4429999999999996C3.3299999999999894,-3.4429999999999996,3.3299999999999894,-4.073,3.3299999999999894,-4.073C3.3299999999999894,-4.073,3.3719999999999875,-4.577,3.3719999999999875,-4.577C3.3719999999999875,-4.577,3.4559999999999906,-4.744999999999999,3.4559999999999906,-4.744999999999999C3.4559999999999906,-4.744999999999999,4.631999999999989,-4.744999999999999,4.631999999999989,-4.744999999999999C4.631999999999989,-4.744999999999999,4.715999999999989,-4.577,4.715999999999989,-4.577C4.715999999999989,-4.577,4.75799999999999,-4.073,4.75799999999999,-4.073C4.75799999999999,-4.073,4.75799999999999,-3.4429999999999996,4.75799999999999,-3.4429999999999996C4.75799999999999,-3.4429999999999996,4.589999999999991,-2.519,4.589999999999991,-2.519C4.589999999999991,-2.519,4.463999999999993,-2.519,4.463999999999993,-2.519C4.463999999999993,-2.519,4.421999999999992,-2.141,4.421999999999992,-2.141C4.421999999999992,-2.141,10.30199999999999,1.093,10.30199999999999,1.093C10.30199999999999,1.093,10.46999999999999,1.2609999999999992,10.46999999999999,1.2609999999999992C10.46999999999999,1.2609999999999992,10.553999999999993,1.5550000000000015,10.553999999999993,1.5550000000000015C10.553999999999993,1.5550000000000015,10.553999999999993,2.1850000000000005,10.553999999999993,2.1850000000000005C10.553999999999993,2.1850000000000005,7.0679999999999925,1.1770000000000014,7.0679999999999925,1.1770000000000014C7.0679999999999925,1.1770000000000014,7.025999999999991,1.3450000000000006,7.025999999999991,1.3450000000000006C7.025999999999991,1.3450000000000006,6.941999999999991,1.429000000000002,6.941999999999991,1.429000000000002C6.941999999999991,1.429000000000002,6.857999999999992,1.3450000000000006,6.857999999999992,1.3450000000000006C6.857999999999992,1.3450000000000006,6.81599999999999,1.1350000000000016,6.81599999999999,1.1350000000000016C6.81599999999999,1.1350000000000016,5.261999999999988,0.673,5.261999999999988,0.673C5.261999999999988,0.673,5.219999999999986,0.8409999999999993,5.219999999999986,0.8409999999999993C5.219999999999986,0.8409999999999993,5.135999999999987,0.9250000000000007,5.135999999999987,0.9250000000000007C5.135999999999987,0.9250000000000007,5.051999999999984,0.8409999999999993,5.051999999999984,0.8409999999999993C5.051999999999984,0.8409999999999993,5.009999999999986,0.6310000000000002,5.009999999999986,0.6310000000000002C5.009999999999986,0.6310000000000002,4.169999999999986,0.37899999999999956,4.169999999999986,0.37899999999999956C4.169999999999986,0.37899999999999956,4.169999999999986,0.7989999999999995,4.169999999999986,0.7989999999999995C4.169999999999986,0.7989999999999995,4.127999999999984,1.0089999999999986,4.127999999999984,1.0089999999999986C4.127999999999984,1.0089999999999986,4.0859999999999825,1.0510000000000002,4.0859999999999825,1.0510000000000002C4.0859999999999825,1.0510000000000002,3.9179999999999833,1.0510000000000002,3.9179999999999833,1.0510000000000002C3.9179999999999833,1.0510000000000002,3.8759999999999852,1.0089999999999986,3.8759999999999852,1.0089999999999986C3.8759999999999852,1.0089999999999986,3.8339999999999836,0.7989999999999995,3.8339999999999836,0.7989999999999995C3.8339999999999836,0.7989999999999995,3.8339999999999836,0.2530000000000001,3.8339999999999836,0.2530000000000001C3.8339999999999836,0.2530000000000001,1.9019999999999815,0.2530000000000001,1.9019999999999815,0.2530000000000001C1.9019999999999815,0.2530000000000001,1.9019999999999815,3.487,1.9019999999999815,3.487C1.9019999999999815,3.487,1.8599999999999817,4.6629999999999985,1.8599999999999817,4.6629999999999985C1.8599999999999817,4.6629999999999985,1.607999999999981,6.2170000000000005,1.607999999999981,6.2170000000000005C1.607999999999981,6.2170000000000005,1.3559999999999803,7.477000000000002,1.3559999999999803,7.477000000000002C1.3559999999999803,7.477000000000002,1.397999999999982,7.645000000000001,1.397999999999982,7.645000000000001C1.397999999999982,7.645000000000001,4.96799999999998,10.123,4.96799999999998,10.123C4.96799999999998,10.123,4.96799999999998,10.879,4.96799999999998,10.879C4.96799999999998,10.879,0.7679999999999811,9.828999999999999,0.7679999999999811,9.828999999999999C0.7679999999999811,9.828999999999999,0.6839999999999797,10.123,0.6839999999999797,10.123C0.6839999999999797,10.123,0.6419999999999799,10.458999999999998,0.6419999999999799,10.458999999999998C0.6419999999999799,10.458999999999998,0.5999999999999783,10.626999999999997,0.5999999999999783,10.626999999999997C0.5999999999999783,10.626999999999997,0.5579999999999785,10.458999999999998,0.5579999999999785,10.458999999999998C0.5579999999999785,10.458999999999998,0.5159999999999769,10.123,0.5159999999999769,10.123C0.5159999999999769,10.123,0.4319999999999773,9.828999999999999,0.4319999999999773,9.828999999999999C0.4319999999999773,9.828999999999999,-3.768000000000022,10.879,-3.768000000000022,10.879C-3.768000000000022,10.879,-3.768000000000022,10.123,-3.768000000000022,10.123C-3.768000000000022,10.123,-0.19800000000002171,7.645000000000001,-0.19800000000002171,7.645000000000001C-0.19800000000002171,7.645000000000001,-0.1560000000000219,7.477000000000002,-0.1560000000000219,7.477000000000002C-0.1560000000000219,7.477000000000002,-0.40800000000002257,6.2170000000000005,-0.40800000000002257,6.2170000000000005C-0.40800000000002257,6.2170000000000005,-0.6600000000000232,4.6629999999999985,-0.6600000000000232,4.6629999999999985C-0.6600000000000232,4.6629999999999985,-0.702000000000023,3.487,-0.702000000000023,3.487C-0.702000000000023,3.487,-0.702000000000023,0.2530000000000001,-0.702000000000023,0.2530000000000001C-0.702000000000023,0.2530000000000001,-2.6340000000000217,0.2530000000000001,-2.6340000000000217,0.2530000000000001C-2.6340000000000217,0.2530000000000001,-2.6340000000000217,0.7989999999999995,-2.6340000000000217,0.7989999999999995C-2.6340000000000217,0.7989999999999995,-2.6760000000000232,1.0089999999999986,-2.6760000000000232,1.0089999999999986C-2.6760000000000232,1.0089999999999986,-2.718000000000023,1.0510000000000002,-2.718000000000023,1.0510000000000002C-2.718000000000023,1.0510000000000002,-2.8860000000000223,1.0510000000000002,-2.8860000000000223,1.0510000000000002C-2.8860000000000223,1.0510000000000002,-2.928000000000024,1.0089999999999986,-2.928000000000024,1.0089999999999986C-2.928000000000024,1.0089999999999986,-2.9700000000000237,0.7989999999999995,-2.9700000000000237,0.7989999999999995C-2.9700000000000237,0.7989999999999995,-2.9700000000000237,0.37899999999999956,-2.9700000000000237,0.37899999999999956C-2.9700000000000237,0.37899999999999956,-3.8100000000000236,0.6310000000000002,-3.8100000000000236,0.6310000000000002C-3.8100000000000236,0.6310000000000002,-3.852000000000025,0.8409999999999993,-3.852000000000025,0.8409999999999993C-3.852000000000025,0.8409999999999993,-3.936000000000025,0.9250000000000007,-3.936000000000025,0.9250000000000007C-3.936000000000025,0.9250000000000007,-4.020000000000024,0.8409999999999993,-4.020000000000024,0.8409999999999993C-4.020000000000024,0.8409999999999993,-4.062000000000024,0.673,-4.062000000000024,0.673C-4.062000000000024,0.673,-5.6160000000000245,1.1350000000000016,-5.6160000000000245,1.1350000000000016C-5.6160000000000245,1.1350000000000016,-5.658000000000025,1.3450000000000006,-5.658000000000025,1.3450000000000006C-5.658000000000025,1.3450000000000006,-5.742000000000025,1.429000000000002,-5.742000000000025,1.429000000000002C-5.742000000000025,1.429000000000002,-5.8260000000000245,1.3450000000000006,-5.8260000000000245,1.3450000000000006C-5.8260000000000245,1.3450000000000006,-5.868000000000025,1.1770000000000014,-5.868000000000025,1.1770000000000014C-5.868000000000025,1.1770000000000014,-9.354000000000024,2.1850000000000005,-9.354000000000024,2.1850000000000005C-9.354000000000024,2.1850000000000005,-9.354000000000024,1.5550000000000015,-9.354000000000024,1.5550000000000015C-9.354000000000024,1.5550000000000015,-9.270000000000024,1.2609999999999992,-9.270000000000024,1.2609999999999992C-9.270000000000024,1.2609999999999992,-9.102000000000025,1.093,-9.102000000000025,1.093C-9.102000000000025,1.093,-3.2220000000000244,-2.141,-3.2220000000000244,-2.141C-3.2220000000000244,-2.141,-3.264000000000026,-2.5189999999999984,-3.264000000000026,-2.5189999999999984C-3.264000000000026,-2.5189999999999984,-3.3900000000000254,-2.5189999999999984,-3.3900000000000254,-2.5189999999999984C-3.3900000000000254,-2.5189999999999984,-3.5580000000000247,-3.442999999999998,-3.5580000000000247,-3.442999999999998C-3.5580000000000247,-3.442999999999998,-3.5580000000000247,-4.072999999999999,-3.5580000000000247,-4.072999999999999C-3.5580000000000247,-4.072999999999999,-3.516000000000025,-4.576999999999998,-3.516000000000025,-4.576999999999998C-3.516000000000025,-4.576999999999998,-3.4320000000000253,-4.744999999999997,-3.4320000000000253,-4.744999999999997C-3.4320000000000253,-4.744999999999997,-2.256000000000025,-4.744999999999997,-2.256000000000025,-4.744999999999997C-2.256000000000025,-4.744999999999997,-2.1720000000000255,-4.576999999999998,-2.1720000000000255,-4.576999999999998C-2.1720000000000255,-4.576999999999998,-2.130000000000024,-3.9049999999999976,-2.130000000000024,-3.9049999999999976C-2.130000000000024,-3.9049999999999976,-2.130000000000024,-3.442999999999996,-2.130000000000024,-3.442999999999996C-2.130000000000024,-3.442999999999996,-2.2140000000000235,-2.812999999999997,-2.2140000000000235,-2.812999999999997C-2.2140000000000235,-2.812999999999997,-0.702000000000023,-3.988999999999997,-0.702000000000023,-3.988999999999997C-0.702000000000023,-3.988999999999997,-0.702000000000023,-6.844999999999997,-0.702000000000023,-6.844999999999997C-0.702000000000023,-6.844999999999997,-0.492000000000024,-9.028999999999996,-0.492000000000024,-9.028999999999996C-0.492000000000024,-9.028999999999996,-0.2400000000000233,-10.330999999999996,-0.2400000000000233,-10.330999999999996C-0.2400000000000233,-10.330999999999996,0.17999999999997662,-11.632999999999996,0.17999999999997662,-11.632999999999996C0.17999999999997662,-11.632999999999996,0.4739999999999771,-12.136999999999997,0.4739999999999771,-12.136999999999997C0.4739999999999771,-12.136999999999997,0.5999999999999908,-12.178999999999998,0.5999999999999908,-12.178999999999998" /></svg>
